<svg width="512" height="512" viewBox="0 0 512 512" xmlns="http://www.w3.org/2000/svg"><defs><clipPath id="rcap_act"><rect width="512" height="512" rx="110"/></clipPath><filter id="gcap_act" x="-80%" y="-80%" width="260%" height="260%"><feGaussianBlur in="SourceGraphic" stdDeviation="16" result="b"/><feMerge><feMergeNode in="b"/><feMergeNode in="b"/><feMergeNode in="b"/><feMergeNode in="SourceGraphic"/></feMerge></filter><filter id="scap_act" x="-40%" y="-40%" width="180%" height="180%"><feGaussianBlur in="SourceGraphic" stdDeviation="8" result="b"/><feMerge><feMergeNode in="b"/><feMergeNode in="SourceGraphic"/></feMerge></filter><filter id="ppcap_act" x="-100%" y="-100%" width="300%" height="300%"><feGaussianBlur in="SourceGraphic" stdDeviation="28"/></filter></defs><g clip-path="url(#rcap_act)"><rect width="512" height="512" fill="#120c00"/><line x1="-100" y1="0" x2="612" y2="712" stroke="#3a2600" stroke-width="0.7" opacity="0.35"/><line x1="-62" y1="0" x2="650" y2="712" stroke="#3a2600" stroke-width="0.7" opacity="0.35"/><line x1="-24" y1="0" x2="688" y2="712" stroke="#3a2600" stroke-width="0.7" opacity="0.35"/><line x1="14" y1="0" x2="726" y2="712" stroke="#3a2600" stroke-width="0.7" opacity="0.35"/><line x1="52" y1="0" x2="764" y2="712" stroke="#3a2600" stroke-width="0.7" opacity="0.35"/><line x1="90" y1="0" x2="802" y2="712" stroke="#3a2600" stroke-width="0.7" opacity="0.35"/><line x1="128" y1="0" x2="840" y2="712" stroke="#3a2600" stroke-width="0.7" opacity="0.35"/><line x1="166" y1="0" x2="878" y2="712" stroke="#3a2600" stroke-width="0.7" opacity="0.35"/><line x1="204" y1="0" x2="916" y2="712" stroke="#3a2600" stroke-width="0.7" opacity="0.35"/><line x1="242" y1="0" x2="954" y2="712" stroke="#3a2600" stroke-width="0.7" opacity="0.35"/><line x1="280" y1="0" x2="992" y2="712" stroke="#3a2600" stroke-width="0.7" opacity="0.35"/><line x1="318" y1="0" x2="1030" y2="712" stroke="#3a2600" stroke-width="0.7" opacity="0.35"/><line x1="356" y1="0" x2="1068" y2="712" stroke="#3a2600" stroke-width="0.7" opacity="0.35"/><line x1="394" y1="0" x2="1106" y2="712" stroke="#3a2600" stroke-width="0.7" opacity="0.35"/><line x1="432" y1="0" x2="1144" y2="712" stroke="#3a2600" stroke-width="0.7" opacity="0.35"/><line x1="470" y1="0" x2="1182" y2="712" stroke="#3a2600" stroke-width="0.7" opacity="0.35"/><line x1="508" y1="0" x2="1220" y2="712" stroke="#3a2600" stroke-width="0.7" opacity="0.35"/><line x1="546" y1="0" x2="1258" y2="712" stroke="#3a2600" stroke-width="0.7" opacity="0.35"/><ellipse cx="256" cy="510" rx="220" ry="100" fill="#b88010" filter="url(#ppcap_act)" opacity="0.38"/><g filter="url(#gcap_act)"><circle cx="256" cy="338" r="52" fill="none" stroke="#c89010" stroke-width="3.5" stroke-linecap="round"/><g transform="rotate(14,256,192)"><polygon points="256,130 382,192 256,254 130,192" fill="none" stroke="#c89010" stroke-width="3.5" stroke-linejoin="round"/><rect x="122" y="185" width="268" height="15" rx="3" fill="none" stroke="#c89010" stroke-width="3.5"/><line x1="382" y1="192" x2="382" y2="296" stroke="#c89010" stroke-width="3" stroke-linecap="round"/><circle cx="382" cy="309" r="13" fill="none" stroke="#c89010" stroke-width="3.5"/><circle cx="382" cy="192" r="7" fill="#c89010" opacity="0.5"/></g></g><g filter="url(#scap_act)"><circle cx="256" cy="338" r="52" fill="none" stroke="#f0c030" stroke-width="2" stroke-linecap="round"/><g transform="rotate(14,256,192)"><polygon points="256,130 382,192 256,254 130,192" fill="none" stroke="#f0c030" stroke-width="2" stroke-linejoin="round"/><rect x="122" y="185" width="268" height="15" rx="3" fill="none" stroke="#f0c030" stroke-width="2"/><line x1="382" y1="192" x2="382" y2="296" stroke="#f0c030" stroke-width="1.8" stroke-linecap="round"/><circle cx="382" cy="309" r="13" fill="none" stroke="#f0c030" stroke-width="2"/><circle cx="256" cy="192" r="10" fill="#ffd860" opacity="0.3"/><circle cx="382" cy="192" r="5" fill="#ffd860" opacity="0.65"/></g></g></g></svg>