<svg viewBox="0 0 512 512" xmlns="http://www.w3.org/2000/svg" width="512" height="512">
<defs>
  <clipPath id="rnd"><rect width="512" height="512" rx="110"/></clipPath>
  <filter id="glow" x="-80%" y="-80%" width="260%" height="260%">
    <feGaussianBlur in="SourceGraphic" stdDeviation="16" result="b"/>
    <feMerge><feMergeNode in="b"/><feMergeNode in="b"/><feMergeNode in="b"/><feMergeNode in="SourceGraphic"/></feMerge>
  </filter>
  <filter id="sglow" x="-40%" y="-40%" width="180%" height="180%">
    <feGaussianBlur in="SourceGraphic" stdDeviation="8" result="b"/>
    <feMerge><feMergeNode in="b"/><feMergeNode in="SourceGraphic"/></feMerge>
  </filter>
  <filter id="pool" x="-100%" y="-100%" width="300%" height="300%">
    <feGaussianBlur in="SourceGraphic" stdDeviation="28"/>
  </filter>
</defs>
<g clip-path="url(#rnd)">
  <rect width="512" height="512" fill="#041814"/>
  <line x1="0" y1="0" x2="512" y2="0" stroke="#0d4030" stroke-width="0.7" opacity="0.4"/><line x1="0" y1="34" x2="512" y2="34" stroke="#0d4030" stroke-width="0.7" opacity="0.4"/><line x1="0" y1="68" x2="512" y2="68" stroke="#0d4030" stroke-width="0.7" opacity="0.4"/><line x1="0" y1="102" x2="512" y2="102" stroke="#0d4030" stroke-width="0.7" opacity="0.4"/><line x1="0" y1="136" x2="512" y2="136" stroke="#0d4030" stroke-width="0.7" opacity="0.4"/><line x1="0" y1="170" x2="512" y2="170" stroke="#0d4030" stroke-width="0.7" opacity="0.4"/><line x1="0" y1="204" x2="512" y2="204" stroke="#0d4030" stroke-width="0.7" opacity="0.4"/><line x1="0" y1="238" x2="512" y2="238" stroke="#0d4030" stroke-width="0.7" opacity="0.4"/><line x1="0" y1="272" x2="512" y2="272" stroke="#0d4030" stroke-width="0.7" opacity="0.4"/><line x1="0" y1="306" x2="512" y2="306" stroke="#0d4030" stroke-width="0.7" opacity="0.4"/><line x1="0" y1="340" x2="512" y2="340" stroke="#0d4030" stroke-width="0.7" opacity="0.4"/><line x1="0" y1="374" x2="512" y2="374" stroke="#0d4030" stroke-width="0.7" opacity="0.4"/><line x1="0" y1="408" x2="512" y2="408" stroke="#0d4030" stroke-width="0.7" opacity="0.4"/><line x1="0" y1="442" x2="512" y2="442" stroke="#0d4030" stroke-width="0.7" opacity="0.4"/><line x1="0" y1="476" x2="512" y2="476" stroke="#0d4030" stroke-width="0.7" opacity="0.4"/><line x1="0" y1="510" x2="512" y2="510" stroke="#0d4030" stroke-width="0.7" opacity="0.4"/>
  <ellipse cx="256" cy="510" rx="220" ry="100" fill="#0a7060" filter="url(#pool)" opacity="0.38"/>
  <g filter="url(#glow)"><path d="M 108,174 L 108,400 L 400,400 L 400,238 L 270,238 L 228,174 Z" fill="none" stroke="#40d8b0" stroke-width="5"/>
<path d="M 108,174 Q 108,160 118,160 L 230,160" fill="none" stroke="#60e8c0" stroke-width="2" opacity=".45" stroke-dasharray="10 7"/>
<line x1="185" y1="392" x2="185" y2="262" stroke="#90f0d8" stroke-width="5" stroke-linecap="round"/>
<rect x="185" y="262" width="160" height="78" rx="4" fill="none" stroke="#90f0d8" stroke-width="4"/>
<path d="M265,279 L269,291 L282,291 L272,299 L276,311 L265,303 L254,311 L258,299 L248,291 L261,291 Z" fill="none" stroke="#90f0d8" stroke-width="2.8"/></g>
  <g filter="url(#sglow)"><path d="M 108,174 L 108,400 L 400,400 L 400,238 L 270,238 L 228,174 Z" fill="none" stroke="#60e8c0" stroke-width="3"/>
<line x1="185" y1="392" x2="185" y2="262" stroke="#a0f8e0" stroke-width="3" stroke-linecap="round"/>
<rect x="185" y="262" width="160" height="78" rx="4" fill="none" stroke="#a0f8e0" stroke-width="2.5"/>
<path d="M265,279 L269,291 L282,291 L272,299 L276,311 L265,303 L254,311 L258,299 L248,291 L261,291 Z" fill="none" stroke="#a0f8e0" stroke-width="2"/></g>
</g>
</svg>