<svg viewBox="0 0 512 512" xmlns="http://www.w3.org/2000/svg" width="512" height="512">
<defs>
  <clipPath id="rnd"><rect width="512" height="512" rx="110"/></clipPath>
  <filter id="glow" x="-80%" y="-80%" width="260%" height="260%">
    <feGaussianBlur in="SourceGraphic" stdDeviation="16" result="b"/>
    <feMerge><feMergeNode in="b"/><feMergeNode in="b"/><feMergeNode in="b"/><feMergeNode in="SourceGraphic"/></feMerge>
  </filter>
  <filter id="sglow" x="-40%" y="-40%" width="180%" height="180%">
    <feGaussianBlur in="SourceGraphic" stdDeviation="8" result="b"/>
    <feMerge><feMergeNode in="b"/><feMergeNode in="SourceGraphic"/></feMerge>
  </filter>
  <filter id="pool" x="-100%" y="-100%" width="300%" height="300%">
    <feGaussianBlur in="SourceGraphic" stdDeviation="28"/>
  </filter>
</defs>
<g clip-path="url(#rnd)">
  <rect width="512" height="512" fill="#130b02"/>
  <line x1="0" y1="0" x2="512" y2="0" stroke="#4a2008" stroke-width="0.7" opacity="0.4"/><line x1="0" y1="32" x2="512" y2="32" stroke="#4a2008" stroke-width="0.7" opacity="0.4"/><line x1="0" y1="64" x2="512" y2="64" stroke="#4a2008" stroke-width="0.7" opacity="0.4"/><line x1="0" y1="96" x2="512" y2="96" stroke="#4a2008" stroke-width="0.7" opacity="0.4"/><line x1="0" y1="128" x2="512" y2="128" stroke="#4a2008" stroke-width="0.7" opacity="0.4"/><line x1="0" y1="160" x2="512" y2="160" stroke="#4a2008" stroke-width="0.7" opacity="0.4"/><line x1="0" y1="192" x2="512" y2="192" stroke="#4a2008" stroke-width="0.7" opacity="0.4"/><line x1="0" y1="224" x2="512" y2="224" stroke="#4a2008" stroke-width="0.7" opacity="0.4"/><line x1="0" y1="256" x2="512" y2="256" stroke="#4a2008" stroke-width="0.7" opacity="0.4"/><line x1="0" y1="288" x2="512" y2="288" stroke="#4a2008" stroke-width="0.7" opacity="0.4"/><line x1="0" y1="320" x2="512" y2="320" stroke="#4a2008" stroke-width="0.7" opacity="0.4"/><line x1="0" y1="352" x2="512" y2="352" stroke="#4a2008" stroke-width="0.7" opacity="0.4"/><line x1="0" y1="384" x2="512" y2="384" stroke="#4a2008" stroke-width="0.7" opacity="0.4"/><line x1="0" y1="416" x2="512" y2="416" stroke="#4a2008" stroke-width="0.7" opacity="0.4"/><line x1="0" y1="448" x2="512" y2="448" stroke="#4a2008" stroke-width="0.7" opacity="0.4"/><line x1="0" y1="480" x2="512" y2="480" stroke="#4a2008" stroke-width="0.7" opacity="0.4"/><line x1="0" y1="512" x2="512" y2="512" stroke="#4a2008" stroke-width="0.7" opacity="0.4"/><line x1="0" y1="544" x2="512" y2="544" stroke="#4a2008" stroke-width="0.7" opacity="0.4"/>
  <ellipse cx="256" cy="510" rx="220" ry="100" fill="#d07010" filter="url(#pool)" opacity="0.38"/>
  <g filter="url(#glow)"><g fill="none" stroke="#f8b020" stroke-width="4">
  <circle cx="225" cy="228" r="122"/>
</g>
<line x1="103" y1="228" x2="347" y2="228" stroke="#f0a020" stroke-width="2" opacity=".35"/>
<line x1="225" y1="106" x2="225" y2="350" stroke="#f0a020" stroke-width="2" opacity=".35"/>
<polyline points="110,310 152,270 188,234 222,250 272,198 310,170 348,138 382,108" fill="none" stroke="#ffe060" stroke-width="4.5" stroke-linejoin="round" stroke-linecap="round"/>
<circle cx="382" cy="108" r="12" fill="#ffe060"/>
<circle cx="348" cy="138" r="8" fill="#f8d060" opacity=".9"/>
<circle cx="310" cy="170" r="8" fill="#f8d060" opacity=".8"/>
<circle cx="272" cy="198" r="7" fill="#f8d060" opacity=".7"/>
<circle cx="222" cy="250" r="7" fill="#f8d060" opacity=".7"/>
<line x1="323" y1="323" x2="420" y2="420" stroke="#f0a020" stroke-width="26" stroke-linecap="round"/></g>
  <g filter="url(#sglow)"><g fill="none" stroke="#f8c040" stroke-width="2.5">
  <circle cx="225" cy="228" r="122"/>
</g>
<line x1="103" y1="228" x2="347" y2="228" stroke="#f0b020" stroke-width="1.2" opacity=".3"/>
<line x1="225" y1="106" x2="225" y2="350" stroke="#f0b020" stroke-width="1.2" opacity=".3"/>
<polyline points="110,310 152,270 188,234 222,250 272,198 310,170 348,138 382,108" fill="none" stroke="#ffe878" stroke-width="3" stroke-linejoin="round" stroke-linecap="round"/>
<circle cx="382" cy="108" r="9" fill="#ffe878"/>
<line x1="323" y1="323" x2="420" y2="420" stroke="#f8c040" stroke-width="22" stroke-linecap="round"/></g>
</g>
</svg>