<svg viewBox="0 0 512 512" xmlns="http://www.w3.org/2000/svg" width="512" height="512">
<defs>
  <clipPath id="rnd"><rect width="512" height="512" rx="110"/></clipPath>
  <filter id="glow" x="-80%" y="-80%" width="260%" height="260%">
    <feGaussianBlur in="SourceGraphic" stdDeviation="16" result="b"/>
    <feMerge><feMergeNode in="b"/><feMergeNode in="b"/><feMergeNode in="b"/><feMergeNode in="SourceGraphic"/></feMerge>
  </filter>
  <filter id="sglow" x="-40%" y="-40%" width="180%" height="180%">
    <feGaussianBlur in="SourceGraphic" stdDeviation="8" result="b"/>
    <feMerge><feMergeNode in="b"/><feMergeNode in="SourceGraphic"/></feMerge>
  </filter>
  <filter id="pool" x="-100%" y="-100%" width="300%" height="300%">
    <feGaussianBlur in="SourceGraphic" stdDeviation="28"/>
  </filter>
</defs>
<g clip-path="url(#rnd)">
  <rect width="512" height="512" fill="#050c1a"/>
  <line x1="0" y1="0" x2="0" y2="512" stroke="#0a2050" stroke-width="0.7" opacity="0.4"/><line x1="38" y1="0" x2="38" y2="512" stroke="#0a2050" stroke-width="0.7" opacity="0.4"/><line x1="76" y1="0" x2="76" y2="512" stroke="#0a2050" stroke-width="0.7" opacity="0.4"/><line x1="114" y1="0" x2="114" y2="512" stroke="#0a2050" stroke-width="0.7" opacity="0.4"/><line x1="152" y1="0" x2="152" y2="512" stroke="#0a2050" stroke-width="0.7" opacity="0.4"/><line x1="190" y1="0" x2="190" y2="512" stroke="#0a2050" stroke-width="0.7" opacity="0.4"/><line x1="228" y1="0" x2="228" y2="512" stroke="#0a2050" stroke-width="0.7" opacity="0.4"/><line x1="266" y1="0" x2="266" y2="512" stroke="#0a2050" stroke-width="0.7" opacity="0.4"/><line x1="304" y1="0" x2="304" y2="512" stroke="#0a2050" stroke-width="0.7" opacity="0.4"/><line x1="342" y1="0" x2="342" y2="512" stroke="#0a2050" stroke-width="0.7" opacity="0.4"/><line x1="380" y1="0" x2="380" y2="512" stroke="#0a2050" stroke-width="0.7" opacity="0.4"/><line x1="418" y1="0" x2="418" y2="512" stroke="#0a2050" stroke-width="0.7" opacity="0.4"/><line x1="456" y1="0" x2="456" y2="512" stroke="#0a2050" stroke-width="0.7" opacity="0.4"/><line x1="494" y1="0" x2="494" y2="512" stroke="#0a2050" stroke-width="0.7" opacity="0.4"/><line x1="532" y1="0" x2="532" y2="512" stroke="#0a2050" stroke-width="0.7" opacity="0.4"/>
  <ellipse cx="256" cy="510" rx="220" ry="100" fill="#1060d0" filter="url(#pool)" opacity="0.38"/>
  <g filter="url(#glow)"><g fill="none" stroke="#3890f8" stroke-width="3.5">
  <rect x="96" y="330" width="96" height="92" rx="4"/>
  <rect x="208" y="210" width="96" height="212" rx="4"/>
  <rect x="320" y="284" width="96" height="138" rx="4"/>
</g>
<text x="144" y="390" text-anchor="middle" fill="#60b0ff" font-size="32" font-family="system-ui" font-weight="400">2</text>
<text x="256" y="290" text-anchor="middle" fill="#c0e8ff" font-size="38" font-family="system-ui" font-weight="500">1</text>
<text x="368" y="360" text-anchor="middle" fill="#60b0ff" font-size="32" font-family="system-ui" font-weight="400">3</text>
<circle cx="256" cy="174" r="36" fill="none" stroke="#a0d8ff" stroke-width="3.5"/>
<circle cx="256" cy="174" r="52" fill="none" stroke="#5090d0" stroke-width="1.5" opacity=".4"/>
<circle cx="256" cy="174" r="66" fill="none" stroke="#3060a0" stroke-width="1" opacity=".25"/>
<path d="M256 154 L261 169 L277 169 L264 178 L269 193 L256 184 L243 193 L248 178 L235 169 L251 169 Z" fill="none" stroke="#c0e8ff" stroke-width="3"/>
<line x1="256" y1="128" x2="256" y2="82" stroke="#a0d8ff" stroke-width="4" stroke-linecap="round"/>
<polyline points="236,100 256,82 276,100" fill="none" stroke="#a0d8ff" stroke-width="4" stroke-linecap="round" stroke-linejoin="round"/>
<circle cx="186" cy="136" r="7" fill="#60b0f8" opacity=".6"/>
<circle cx="326" cy="120" r="7" fill="#60b0f8" opacity=".5"/>
<circle cx="350" cy="168" r="5" fill="#90d0ff" opacity=".4"/>
<circle cx="162" cy="190" r="5" fill="#90d0ff" opacity=".4"/>
<circle cx="310" cy="82" r="4" fill="#a0d8ff" opacity=".35"/></g>
  <g filter="url(#sglow)"><g fill="none" stroke="#5aa8ff" stroke-width="2">
  <rect x="96" y="330" width="96" height="92" rx="4"/>
  <rect x="208" y="210" width="96" height="212" rx="4"/>
  <rect x="320" y="284" width="96" height="138" rx="4"/>
</g>
<circle cx="256" cy="174" r="36" fill="none" stroke="#c0e8ff" stroke-width="2.5"/>
<circle cx="256" cy="174" r="52" fill="none" stroke="#6090c0" stroke-width="1" opacity=".35"/>
<path d="M256 154 L261 169 L277 169 L264 178 L269 193 L256 184 L243 193 L248 178 L235 169 L251 169 Z" fill="none" stroke="#b0d8ff" stroke-width="2"/>
<line x1="256" y1="128" x2="256" y2="82" stroke="#b0d8ff" stroke-width="3" stroke-linecap="round"/>
<polyline points="236,100 256,82 276,100" fill="none" stroke="#b0d8ff" stroke-width="3" stroke-linecap="round" stroke-linejoin="round"/></g>
</g>
</svg>