<svg viewBox="0 0 512 512" xmlns="http://www.w3.org/2000/svg" width="512" height="512">
<defs>
  <clipPath id="rnd"><rect width="512" height="512" rx="110"/></clipPath>
  <filter id="glow" x="-80%" y="-80%" width="260%" height="260%">
    <feGaussianBlur in="SourceGraphic" stdDeviation="16" result="b"/>
    <feMerge><feMergeNode in="b"/><feMergeNode in="b"/><feMergeNode in="b"/><feMergeNode in="SourceGraphic"/></feMerge>
  </filter>
  <filter id="sglow" x="-40%" y="-40%" width="180%" height="180%">
    <feGaussianBlur in="SourceGraphic" stdDeviation="8" result="b"/>
    <feMerge><feMergeNode in="b"/><feMergeNode in="SourceGraphic"/></feMerge>
  </filter>
  <filter id="pool" x="-100%" y="-100%" width="300%" height="300%">
    <feGaussianBlur in="SourceGraphic" stdDeviation="28"/>
  </filter>
</defs>
<g clip-path="url(#rnd)">
  <rect width="512" height="512" fill="#140820"/>
  <circle cx="32" cy="32" r="1.4" fill="#4a1060" opacity="0.5"/><circle cx="32" cy="76" r="1.4" fill="#4a1060" opacity="0.5"/><circle cx="32" cy="120" r="1.4" fill="#4a1060" opacity="0.5"/><circle cx="32" cy="164" r="1.4" fill="#4a1060" opacity="0.5"/><circle cx="32" cy="208" r="1.4" fill="#4a1060" opacity="0.5"/><circle cx="32" cy="252" r="1.4" fill="#4a1060" opacity="0.5"/><circle cx="32" cy="296" r="1.4" fill="#4a1060" opacity="0.5"/><circle cx="32" cy="340" r="1.4" fill="#4a1060" opacity="0.5"/><circle cx="32" cy="384" r="1.4" fill="#4a1060" opacity="0.5"/><circle cx="32" cy="428" r="1.4" fill="#4a1060" opacity="0.5"/><circle cx="32" cy="472" r="1.4" fill="#4a1060" opacity="0.5"/><circle cx="76" cy="32" r="1.4" fill="#4a1060" opacity="0.5"/><circle cx="76" cy="76" r="1.4" fill="#4a1060" opacity="0.5"/><circle cx="76" cy="120" r="1.4" fill="#4a1060" opacity="0.5"/><circle cx="76" cy="164" r="1.4" fill="#4a1060" opacity="0.5"/><circle cx="76" cy="208" r="1.4" fill="#4a1060" opacity="0.5"/><circle cx="76" cy="252" r="1.4" fill="#4a1060" opacity="0.5"/><circle cx="76" cy="296" r="1.4" fill="#4a1060" opacity="0.5"/><circle cx="76" cy="340" r="1.4" fill="#4a1060" opacity="0.5"/><circle cx="76" cy="384" r="1.4" fill="#4a1060" opacity="0.5"/><circle cx="76" cy="428" r="1.4" fill="#4a1060" opacity="0.5"/><circle cx="76" cy="472" r="1.4" fill="#4a1060" opacity="0.5"/><circle cx="120" cy="32" r="1.4" fill="#4a1060" opacity="0.5"/><circle cx="120" cy="76" r="1.4" fill="#4a1060" opacity="0.5"/><circle cx="120" cy="120" r="1.4" fill="#4a1060" opacity="0.5"/><circle cx="120" cy="164" r="1.4" fill="#4a1060" opacity="0.5"/><circle cx="120" cy="208" r="1.4" fill="#4a1060" opacity="0.5"/><circle cx="120" cy="252" r="1.4" fill="#4a1060" opacity="0.5"/><circle cx="120" cy="296" r="1.4" fill="#4a1060" opacity="0.5"/><circle cx="120" cy="340" r="1.4" fill="#4a1060" opacity="0.5"/><circle cx="120" cy="384" r="1.4" fill="#4a1060" opacity="0.5"/><circle cx="120" cy="428" r="1.4" fill="#4a1060" opacity="0.5"/><circle cx="120" cy="472" r="1.4" fill="#4a1060" opacity="0.5"/><circle cx="164" cy="32" r="1.4" fill="#4a1060" opacity="0.5"/><circle cx="164" cy="76" r="1.4" fill="#4a1060" opacity="0.5"/><circle cx="164" cy="120" r="1.4" fill="#4a1060" opacity="0.5"/><circle cx="164" cy="164" r="1.4" fill="#4a1060" opacity="0.5"/><circle cx="164" cy="208" r="1.4" fill="#4a1060" opacity="0.5"/><circle cx="164" cy="252" r="1.4" fill="#4a1060" opacity="0.5"/><circle cx="164" cy="296" r="1.4" fill="#4a1060" opacity="0.5"/><circle cx="164" cy="340" r="1.4" fill="#4a1060" opacity="0.5"/><circle cx="164" cy="384" r="1.4" fill="#4a1060" opacity="0.5"/><circle cx="164" cy="428" r="1.4" fill="#4a1060" opacity="0.5"/><circle cx="164" cy="472" r="1.4" fill="#4a1060" opacity="0.5"/><circle cx="208" cy="32" r="1.4" fill="#4a1060" opacity="0.5"/><circle cx="208" cy="76" r="1.4" fill="#4a1060" opacity="0.5"/><circle cx="208" cy="120" r="1.4" fill="#4a1060" opacity="0.5"/><circle cx="208" cy="164" r="1.4" fill="#4a1060" opacity="0.5"/><circle cx="208" cy="208" r="1.4" fill="#4a1060" opacity="0.5"/><circle cx="208" cy="252" r="1.4" fill="#4a1060" opacity="0.5"/><circle cx="208" cy="296" r="1.4" fill="#4a1060" opacity="0.5"/><circle cx="208" cy="340" r="1.4" fill="#4a1060" opacity="0.5"/><circle cx="208" cy="384" r="1.4" fill="#4a1060" opacity="0.5"/><circle cx="208" cy="428" r="1.4" fill="#4a1060" opacity="0.5"/><circle cx="208" cy="472" r="1.4" fill="#4a1060" opacity="0.5"/><circle cx="252" cy="32" r="1.4" fill="#4a1060" opacity="0.5"/><circle cx="252" cy="76" r="1.4" fill="#4a1060" opacity="0.5"/><circle cx="252" cy="120" r="1.4" fill="#4a1060" opacity="0.5"/><circle cx="252" cy="164" r="1.4" fill="#4a1060" opacity="0.5"/><circle cx="252" cy="208" r="1.4" fill="#4a1060" opacity="0.5"/><circle cx="252" cy="252" r="1.4" fill="#4a1060" opacity="0.5"/><circle cx="252" cy="296" r="1.4" fill="#4a1060" opacity="0.5"/><circle cx="252" cy="340" r="1.4" fill="#4a1060" opacity="0.5"/><circle cx="252" cy="384" r="1.4" fill="#4a1060" opacity="0.5"/><circle cx="252" cy="428" r="1.4" fill="#4a1060" opacity="0.5"/><circle cx="252" cy="472" r="1.4" fill="#4a1060" opacity="0.5"/><circle cx="296" cy="32" r="1.4" fill="#4a1060" opacity="0.5"/><circle cx="296" cy="76" r="1.4" fill="#4a1060" opacity="0.5"/><circle cx="296" cy="120" r="1.4" fill="#4a1060" opacity="0.5"/><circle cx="296" cy="164" r="1.4" fill="#4a1060" opacity="0.5"/><circle cx="296" cy="208" r="1.4" fill="#4a1060" opacity="0.5"/><circle cx="296" cy="252" r="1.4" fill="#4a1060" opacity="0.5"/><circle cx="296" cy="296" r="1.4" fill="#4a1060" opacity="0.5"/><circle cx="296" cy="340" r="1.4" fill="#4a1060" opacity="0.5"/><circle cx="296" cy="384" r="1.4" fill="#4a1060" opacity="0.5"/><circle cx="296" cy="428" r="1.4" fill="#4a1060" opacity="0.5"/><circle cx="296" cy="472" r="1.4" fill="#4a1060" opacity="0.5"/><circle cx="340" cy="32" r="1.4" fill="#4a1060" opacity="0.5"/><circle cx="340" cy="76" r="1.4" fill="#4a1060" opacity="0.5"/><circle cx="340" cy="120" r="1.4" fill="#4a1060" opacity="0.5"/><circle cx="340" cy="164" r="1.4" fill="#4a1060" opacity="0.5"/><circle cx="340" cy="208" r="1.4" fill="#4a1060" opacity="0.5"/><circle cx="340" cy="252" r="1.4" fill="#4a1060" opacity="0.5"/><circle cx="340" cy="296" r="1.4" fill="#4a1060" opacity="0.5"/><circle cx="340" cy="340" r="1.4" fill="#4a1060" opacity="0.5"/><circle cx="340" cy="384" r="1.4" fill="#4a1060" opacity="0.5"/><circle cx="340" cy="428" r="1.4" fill="#4a1060" opacity="0.5"/><circle cx="340" cy="472" r="1.4" fill="#4a1060" opacity="0.5"/><circle cx="384" cy="32" r="1.4" fill="#4a1060" opacity="0.5"/><circle cx="384" cy="76" r="1.4" fill="#4a1060" opacity="0.5"/><circle cx="384" cy="120" r="1.4" fill="#4a1060" opacity="0.5"/><circle cx="384" cy="164" r="1.4" fill="#4a1060" opacity="0.5"/><circle cx="384" cy="208" r="1.4" fill="#4a1060" opacity="0.5"/><circle cx="384" cy="252" r="1.4" fill="#4a1060" opacity="0.5"/><circle cx="384" cy="296" r="1.4" fill="#4a1060" opacity="0.5"/><circle cx="384" cy="340" r="1.4" fill="#4a1060" opacity="0.5"/><circle cx="384" cy="384" r="1.4" fill="#4a1060" opacity="0.5"/><circle cx="384" cy="428" r="1.4" fill="#4a1060" opacity="0.5"/><circle cx="384" cy="472" r="1.4" fill="#4a1060" opacity="0.5"/><circle cx="428" cy="32" r="1.4" fill="#4a1060" opacity="0.5"/><circle cx="428" cy="76" r="1.4" fill="#4a1060" opacity="0.5"/><circle cx="428" cy="120" r="1.4" fill="#4a1060" opacity="0.5"/><circle cx="428" cy="164" r="1.4" fill="#4a1060" opacity="0.5"/><circle cx="428" cy="208" r="1.4" fill="#4a1060" opacity="0.5"/><circle cx="428" cy="252" r="1.4" fill="#4a1060" opacity="0.5"/><circle cx="428" cy="296" r="1.4" fill="#4a1060" opacity="0.5"/><circle cx="428" cy="340" r="1.4" fill="#4a1060" opacity="0.5"/><circle cx="428" cy="384" r="1.4" fill="#4a1060" opacity="0.5"/><circle cx="428" cy="428" r="1.4" fill="#4a1060" opacity="0.5"/><circle cx="428" cy="472" r="1.4" fill="#4a1060" opacity="0.5"/><circle cx="472" cy="32" r="1.4" fill="#4a1060" opacity="0.5"/><circle cx="472" cy="76" r="1.4" fill="#4a1060" opacity="0.5"/><circle cx="472" cy="120" r="1.4" fill="#4a1060" opacity="0.5"/><circle cx="472" cy="164" r="1.4" fill="#4a1060" opacity="0.5"/><circle cx="472" cy="208" r="1.4" fill="#4a1060" opacity="0.5"/><circle cx="472" cy="252" r="1.4" fill="#4a1060" opacity="0.5"/><circle cx="472" cy="296" r="1.4" fill="#4a1060" opacity="0.5"/><circle cx="472" cy="340" r="1.4" fill="#4a1060" opacity="0.5"/><circle cx="472" cy="384" r="1.4" fill="#4a1060" opacity="0.5"/><circle cx="472" cy="428" r="1.4" fill="#4a1060" opacity="0.5"/><circle cx="472" cy="472" r="1.4" fill="#4a1060" opacity="0.5"/>
  <ellipse cx="256" cy="510" rx="220" ry="100" fill="#a020d0" filter="url(#pool)" opacity="0.38"/>
  <g filter="url(#glow)">
<line x1="0" y1="44" x2="512" y2="44" stroke="#8030b0" stroke-width="0.9" opacity="0.28"/><line x1="0" y1="88" x2="512" y2="88" stroke="#8030b0" stroke-width="0.9" opacity="0.28"/><line x1="0" y1="132" x2="512" y2="132" stroke="#8030b0" stroke-width="0.9" opacity="0.28"/><line x1="0" y1="176" x2="512" y2="176" stroke="#8030b0" stroke-width="0.9" opacity="0.28"/><line x1="0" y1="220" x2="512" y2="220" stroke="#8030b0" stroke-width="0.9" opacity="0.28"/><line x1="0" y1="264" x2="512" y2="264" stroke="#8030b0" stroke-width="0.9" opacity="0.28"/><line x1="0" y1="308" x2="512" y2="308" stroke="#8030b0" stroke-width="0.9" opacity="0.28"/><line x1="0" y1="352" x2="512" y2="352" stroke="#8030b0" stroke-width="0.9" opacity="0.28"/><line x1="0" y1="396" x2="512" y2="396" stroke="#8030b0" stroke-width="0.9" opacity="0.28"/><line x1="0" y1="440" x2="512" y2="440" stroke="#8030b0" stroke-width="0.9" opacity="0.28"/><line x1="0" y1="484" x2="512" y2="484" stroke="#8030b0" stroke-width="0.9" opacity="0.28"/><line x1="44" y1="0" x2="44" y2="512" stroke="#8030b0" stroke-width="0.9" opacity="0.28"/><line x1="88" y1="0" x2="88" y2="512" stroke="#8030b0" stroke-width="0.9" opacity="0.28"/><line x1="132" y1="0" x2="132" y2="512" stroke="#8030b0" stroke-width="0.9" opacity="0.28"/><line x1="176" y1="0" x2="176" y2="512" stroke="#8030b0" stroke-width="0.9" opacity="0.28"/><line x1="220" y1="0" x2="220" y2="512" stroke="#8030b0" stroke-width="0.9" opacity="0.28"/><line x1="264" y1="0" x2="264" y2="512" stroke="#8030b0" stroke-width="0.9" opacity="0.28"/><line x1="308" y1="0" x2="308" y2="512" stroke="#8030b0" stroke-width="0.9" opacity="0.28"/><line x1="352" y1="0" x2="352" y2="512" stroke="#8030b0" stroke-width="0.9" opacity="0.28"/><line x1="396" y1="0" x2="396" y2="512" stroke="#8030b0" stroke-width="0.9" opacity="0.28"/><line x1="440" y1="0" x2="440" y2="512" stroke="#8030b0" stroke-width="0.9" opacity="0.28"/><line x1="484" y1="0" x2="484" y2="512" stroke="#8030b0" stroke-width="0.9" opacity="0.28"/>
<circle cx="190" cy="190" r="68" fill="none" stroke="#f0a0ff" stroke-width="5"/>
<circle cx="190" cy="190" r="96" fill="none" stroke="#d060f0" stroke-width="1.8" opacity=".3"/>
<circle cx="190" cy="190" r="118" fill="none" stroke="#a020c0" stroke-width="1" opacity=".15"/>
<line x1="190" y1="158" x2="190" y2="222" stroke="#f8c0ff" stroke-width="6" stroke-linecap="round"/>
<line x1="158" y1="190" x2="222" y2="190" stroke="#f8c0ff" stroke-width="6" stroke-linecap="round"/>

<circle cx="348" cy="158" r="50" fill="none" stroke="#e070f8" stroke-width="4.5"/>
<circle cx="348" cy="158" r="72" fill="none" stroke="#c050e0" stroke-width="1.5" opacity=".3"/>
<line x1="348" y1="132" x2="348" y2="184" stroke="#f0a0ff" stroke-width="5" stroke-linecap="round"/>
<line x1="322" y1="158" x2="374" y2="158" stroke="#f0a0ff" stroke-width="5" stroke-linecap="round"/>

<circle cx="148" cy="348" r="44" fill="none" stroke="#e070f8" stroke-width="4"/>
<circle cx="148" cy="348" r="64" fill="none" stroke="#c050e0" stroke-width="1.5" opacity=".3"/>
<line x1="148" y1="324" x2="148" y2="372" stroke="#f0a0ff" stroke-width="4.5" stroke-linecap="round"/>
<line x1="124" y1="348" x2="172" y2="348" stroke="#f0a0ff" stroke-width="4.5" stroke-linecap="round"/>

<line x1="190" y1="258" x2="162" y2="308" stroke="#a030c0" stroke-width="3.5" opacity=".65"/>
<line x1="258" y1="190" x2="192" y2="306" stroke="#a030c0" stroke-width="3.5" opacity=".65"/>
<line x1="280" y1="190" x2="282" y2="270" stroke="#8020a0" stroke-width="2.5" opacity=".5"/>

<rect x="278" y="268" width="178" height="158" rx="12" fill="none" stroke="#f0a0ff" stroke-width="5"/>
<line x1="300" y1="308" x2="432" y2="308" stroke="#e080ff" stroke-width="4" opacity=".8"/>
<line x1="300" y1="334" x2="410" y2="334" stroke="#d060f0" stroke-width="3.5" opacity=".7"/>
<line x1="300" y1="358" x2="380" y2="358" stroke="#d060f0" stroke-width="3" opacity=".6"/>
<line x1="300" y1="382" x2="350" y2="382" stroke="#c050e0" stroke-width="2.5" opacity=".5"/>
</g>
  <g filter="url(#sglow)">
<line x1="0" y1="44" x2="512" y2="44" stroke="#8030b0" stroke-width="0.9" opacity="0.28"/><line x1="0" y1="88" x2="512" y2="88" stroke="#8030b0" stroke-width="0.9" opacity="0.28"/><line x1="0" y1="132" x2="512" y2="132" stroke="#8030b0" stroke-width="0.9" opacity="0.28"/><line x1="0" y1="176" x2="512" y2="176" stroke="#8030b0" stroke-width="0.9" opacity="0.28"/><line x1="0" y1="220" x2="512" y2="220" stroke="#8030b0" stroke-width="0.9" opacity="0.28"/><line x1="0" y1="264" x2="512" y2="264" stroke="#8030b0" stroke-width="0.9" opacity="0.28"/><line x1="0" y1="308" x2="512" y2="308" stroke="#8030b0" stroke-width="0.9" opacity="0.28"/><line x1="0" y1="352" x2="512" y2="352" stroke="#8030b0" stroke-width="0.9" opacity="0.28"/><line x1="0" y1="396" x2="512" y2="396" stroke="#8030b0" stroke-width="0.9" opacity="0.28"/><line x1="0" y1="440" x2="512" y2="440" stroke="#8030b0" stroke-width="0.9" opacity="0.28"/><line x1="0" y1="484" x2="512" y2="484" stroke="#8030b0" stroke-width="0.9" opacity="0.28"/><line x1="44" y1="0" x2="44" y2="512" stroke="#8030b0" stroke-width="0.9" opacity="0.28"/><line x1="88" y1="0" x2="88" y2="512" stroke="#8030b0" stroke-width="0.9" opacity="0.28"/><line x1="132" y1="0" x2="132" y2="512" stroke="#8030b0" stroke-width="0.9" opacity="0.28"/><line x1="176" y1="0" x2="176" y2="512" stroke="#8030b0" stroke-width="0.9" opacity="0.28"/><line x1="220" y1="0" x2="220" y2="512" stroke="#8030b0" stroke-width="0.9" opacity="0.28"/><line x1="264" y1="0" x2="264" y2="512" stroke="#8030b0" stroke-width="0.9" opacity="0.28"/><line x1="308" y1="0" x2="308" y2="512" stroke="#8030b0" stroke-width="0.9" opacity="0.28"/><line x1="352" y1="0" x2="352" y2="512" stroke="#8030b0" stroke-width="0.9" opacity="0.28"/><line x1="396" y1="0" x2="396" y2="512" stroke="#8030b0" stroke-width="0.9" opacity="0.28"/><line x1="440" y1="0" x2="440" y2="512" stroke="#8030b0" stroke-width="0.9" opacity="0.28"/><line x1="484" y1="0" x2="484" y2="512" stroke="#8030b0" stroke-width="0.9" opacity="0.28"/>
<circle cx="190" cy="190" r="68" fill="none" stroke="#f8b8ff" stroke-width="3"/>
<circle cx="190" cy="190" r="96" fill="none" stroke="#d060f0" stroke-width="1" opacity=".25"/>
<line x1="190" y1="158" x2="190" y2="222" stroke="#ffd0ff" stroke-width="3.5" stroke-linecap="round"/>
<line x1="158" y1="190" x2="222" y2="190" stroke="#ffd0ff" stroke-width="3.5" stroke-linecap="round"/>

<circle cx="348" cy="158" r="50" fill="none" stroke="#e888ff" stroke-width="3"/>
<circle cx="348" cy="158" r="72" fill="none" stroke="#c050e0" stroke-width="1" opacity=".22"/>
<line x1="348" y1="132" x2="348" y2="184" stroke="#f0b0ff" stroke-width="3" stroke-linecap="round"/>
<line x1="322" y1="158" x2="374" y2="158" stroke="#f0b0ff" stroke-width="3" stroke-linecap="round"/>

<circle cx="148" cy="348" r="44" fill="none" stroke="#e888ff" stroke-width="2.5"/>
<circle cx="148" cy="348" r="64" fill="none" stroke="#c050e0" stroke-width="1" opacity=".22"/>
<line x1="148" y1="324" x2="148" y2="372" stroke="#f0b0ff" stroke-width="3" stroke-linecap="round"/>
<line x1="124" y1="348" x2="172" y2="348" stroke="#f0b0ff" stroke-width="3" stroke-linecap="round"/>

<line x1="190" y1="258" x2="162" y2="308" stroke="#b040d0" stroke-width="2.5" opacity=".6"/>
<line x1="258" y1="190" x2="192" y2="306" stroke="#b040d0" stroke-width="2.5" opacity=".6"/>
<line x1="280" y1="190" x2="282" y2="270" stroke="#9030b0" stroke-width="2" opacity=".45"/>

<rect x="278" y="268" width="178" height="158" rx="12" fill="none" stroke="#f0b0ff" stroke-width="3"/>
<line x1="300" y1="308" x2="432" y2="308" stroke="#d880ff" stroke-width="2.5" opacity=".75"/>
<line x1="300" y1="334" x2="410" y2="334" stroke="#c860f0" stroke-width="2" opacity=".65"/>
<line x1="300" y1="358" x2="380" y2="358" stroke="#c860f0" stroke-width="2" opacity=".55"/>
<line x1="300" y1="382" x2="350" y2="382" stroke="#b050d0" stroke-width="1.8" opacity=".45"/>
</g>
</g>
</svg>