<svg viewBox="0 0 512 512" xmlns="http://www.w3.org/2000/svg" width="512" height="512">
<defs>
  <clipPath id="rnd"><rect width="512" height="512" rx="110"/></clipPath>
  <filter id="glow" x="-80%" y="-80%" width="260%" height="260%">
    <feGaussianBlur in="SourceGraphic" stdDeviation="16" result="b"/>
    <feMerge><feMergeNode in="b"/><feMergeNode in="b"/><feMergeNode in="b"/><feMergeNode in="SourceGraphic"/></feMerge>
  </filter>
  <filter id="sglow" x="-40%" y="-40%" width="180%" height="180%">
    <feGaussianBlur in="SourceGraphic" stdDeviation="8" result="b"/>
    <feMerge><feMergeNode in="b"/><feMergeNode in="SourceGraphic"/></feMerge>
  </filter>
  <filter id="pool" x="-100%" y="-100%" width="300%" height="300%">
    <feGaussianBlur in="SourceGraphic" stdDeviation="28"/>
  </filter>
</defs>
<g clip-path="url(#rnd)">
  <rect width="512" height="512" fill="#0e0404"/>
  <line x1="712" y1="0" x2="0" y2="712" stroke="#3a0808" stroke-width="0.7" opacity="0.35"/><line x1="674" y1="0" x2="-38" y2="712" stroke="#3a0808" stroke-width="0.7" opacity="0.35"/><line x1="636" y1="0" x2="-76" y2="712" stroke="#3a0808" stroke-width="0.7" opacity="0.35"/><line x1="598" y1="0" x2="-114" y2="712" stroke="#3a0808" stroke-width="0.7" opacity="0.35"/><line x1="560" y1="0" x2="-152" y2="712" stroke="#3a0808" stroke-width="0.7" opacity="0.35"/><line x1="522" y1="0" x2="-190" y2="712" stroke="#3a0808" stroke-width="0.7" opacity="0.35"/><line x1="484" y1="0" x2="-228" y2="712" stroke="#3a0808" stroke-width="0.7" opacity="0.35"/><line x1="446" y1="0" x2="-266" y2="712" stroke="#3a0808" stroke-width="0.7" opacity="0.35"/><line x1="408" y1="0" x2="-304" y2="712" stroke="#3a0808" stroke-width="0.7" opacity="0.35"/><line x1="370" y1="0" x2="-342" y2="712" stroke="#3a0808" stroke-width="0.7" opacity="0.35"/><line x1="332" y1="0" x2="-380" y2="712" stroke="#3a0808" stroke-width="0.7" opacity="0.35"/><line x1="294" y1="0" x2="-418" y2="712" stroke="#3a0808" stroke-width="0.7" opacity="0.35"/><line x1="256" y1="0" x2="-456" y2="712" stroke="#3a0808" stroke-width="0.7" opacity="0.35"/><line x1="218" y1="0" x2="-494" y2="712" stroke="#3a0808" stroke-width="0.7" opacity="0.35"/><line x1="180" y1="0" x2="-532" y2="712" stroke="#3a0808" stroke-width="0.7" opacity="0.35"/><line x1="142" y1="0" x2="-570" y2="712" stroke="#3a0808" stroke-width="0.7" opacity="0.35"/><line x1="104" y1="0" x2="-608" y2="712" stroke="#3a0808" stroke-width="0.7" opacity="0.35"/><line x1="66" y1="0" x2="-646" y2="712" stroke="#3a0808" stroke-width="0.7" opacity="0.35"/><line x1="28" y1="0" x2="-684" y2="712" stroke="#3a0808" stroke-width="0.7" opacity="0.35"/><line x1="-10" y1="0" x2="-722" y2="712" stroke="#3a0808" stroke-width="0.7" opacity="0.35"/><line x1="-48" y1="0" x2="-760" y2="712" stroke="#3a0808" stroke-width="0.7" opacity="0.35"/><line x1="-86" y1="0" x2="-798" y2="712" stroke="#3a0808" stroke-width="0.7" opacity="0.35"/>
  <ellipse cx="256" cy="510" rx="220" ry="100" fill="#c01018" filter="url(#pool)" opacity="0.38"/>
  <g filter="url(#glow)"><g fill="none" stroke="#e84040" stroke-width="4">
  <path d="M256,168 C220,158 108,170 80,190 L80,420 C108,402 220,396 256,420 Z"/>
  <path d="M256,168 C292,158 404,170 432,190 L432,420 C404,402 292,396 256,420 Z"/>
</g>
<line x1="256" y1="168" x2="256" y2="420" stroke="#d03030" stroke-width="3.5"/>
<g stroke="#a82020" stroke-width="1.8" opacity=".55">
  <line x1="100" y1="224" x2="242" y2="220"/>
  <line x1="96" y1="256" x2="240" y2="252"/>
  <line x1="94" y1="288" x2="238" y2="284"/>
  <line x1="270" y1="220" x2="408" y2="224"/>
  <line x1="272" y1="252" x2="410" y2="256"/>
  <line x1="274" y1="284" x2="410" y2="288"/>
</g>
<path d="M192,144 L192,104 L220,124 L256,82 L292,124 L320,104 L320,144 Z" fill="none" stroke="#ff8080" stroke-width="4"/>
<circle cx="192" cy="104" r="14" fill="#ff8080"/>
<circle cx="320" cy="104" r="14" fill="#ff8080"/>
<circle cx="256" cy="82" r="16" fill="#ffaaaa"/>
<line x1="256" y1="66" x2="256" y2="42" stroke="#ffaaaa" stroke-width="3" opacity=".9"/>
<line x1="268" y1="70" x2="280" y2="56" stroke="#ffaaaa" stroke-width="2.5" opacity=".8"/>
<line x1="244" y1="70" x2="232" y2="56" stroke="#ffaaaa" stroke-width="2.5" opacity=".8"/>
<circle cx="152" cy="80" r="6" fill="#f87070" opacity=".65"/>
<circle cx="362" cy="76" r="6" fill="#f87070" opacity=".65"/>
<circle cx="110" cy="118" r="4.5" fill="#f87070" opacity=".45"/>
<circle cx="402" cy="114" r="4.5" fill="#f87070" opacity=".45"/>
<circle cx="200" cy="48" r="4" fill="#ff9090" opacity=".5"/>
<circle cx="316" cy="44" r="4" fill="#ff9090" opacity=".5"/></g>
  <g filter="url(#sglow)"><g fill="none" stroke="#f05050" stroke-width="2.5">
  <path d="M256,168 C220,158 108,170 80,190 L80,420 C108,402 220,396 256,420 Z"/>
  <path d="M256,168 C292,158 404,170 432,190 L432,420 C404,402 292,396 256,420 Z"/>
</g>
<line x1="256" y1="168" x2="256" y2="420" stroke="#e04040" stroke-width="2.5"/>
<path d="M192,144 L192,104 L220,124 L256,82 L292,124 L320,104 L320,144 Z" fill="none" stroke="#ff9090" stroke-width="2.5"/>
<circle cx="192" cy="104" r="11" fill="#ff9090"/>
<circle cx="320" cy="104" r="11" fill="#ff9090"/>
<circle cx="256" cy="82" r="13" fill="#ffcccc"/>
<line x1="256" y1="66" x2="256" y2="42" stroke="#ffcccc" stroke-width="2.5" opacity=".8"/>
<line x1="268" y1="70" x2="280" y2="56" stroke="#ffcccc" stroke-width="2" opacity=".7"/>
<line x1="244" y1="70" x2="232" y2="56" stroke="#ffcccc" stroke-width="2" opacity=".7"/></g>
</g>
</svg>