<svg viewBox="0 0 512 512" xmlns="http://www.w3.org/2000/svg" width="512" height="512">
<defs>
  <clipPath id="rnd"><rect width="512" height="512" rx="110"/></clipPath>
  <filter id="glow" x="-80%" y="-80%" width="260%" height="260%">
    <feGaussianBlur in="SourceGraphic" stdDeviation="14" result="b"/>
    <feMerge><feMergeNode in="b"/><feMergeNode in="b"/><feMergeNode in="SourceGraphic"/></feMerge>
  </filter>
  <filter id="sglow" x="-40%" y="-40%" width="180%" height="180%">
    <feGaussianBlur in="SourceGraphic" stdDeviation="7" result="b"/>
    <feMerge><feMergeNode in="b"/><feMergeNode in="SourceGraphic"/></feMerge>
  </filter>
  <filter id="pool" x="-100%" y="-100%" width="300%" height="300%">
    <feGaussianBlur in="SourceGraphic" stdDeviation="28"/>
  </filter>
</defs>
<g clip-path="url(#rnd)">
  <rect width="512" height="512" fill="#020e18"/>
  <line x1="0" y1="0" x2="512" y2="0" stroke="#082040" stroke-width="0.7" opacity="0.35"/><line x1="0" y1="36" x2="512" y2="36" stroke="#082040" stroke-width="0.7" opacity="0.35"/><line x1="0" y1="72" x2="512" y2="72" stroke="#082040" stroke-width="0.7" opacity="0.35"/><line x1="0" y1="108" x2="512" y2="108" stroke="#082040" stroke-width="0.7" opacity="0.35"/><line x1="0" y1="144" x2="512" y2="144" stroke="#082040" stroke-width="0.7" opacity="0.35"/><line x1="0" y1="180" x2="512" y2="180" stroke="#082040" stroke-width="0.7" opacity="0.35"/><line x1="0" y1="216" x2="512" y2="216" stroke="#082040" stroke-width="0.7" opacity="0.35"/><line x1="0" y1="252" x2="512" y2="252" stroke="#082040" stroke-width="0.7" opacity="0.35"/><line x1="0" y1="288" x2="512" y2="288" stroke="#082040" stroke-width="0.7" opacity="0.35"/><line x1="0" y1="324" x2="512" y2="324" stroke="#082040" stroke-width="0.7" opacity="0.35"/><line x1="0" y1="360" x2="512" y2="360" stroke="#082040" stroke-width="0.7" opacity="0.35"/><line x1="0" y1="396" x2="512" y2="396" stroke="#082040" stroke-width="0.7" opacity="0.35"/><line x1="0" y1="432" x2="512" y2="432" stroke="#082040" stroke-width="0.7" opacity="0.35"/><line x1="0" y1="468" x2="512" y2="468" stroke="#082040" stroke-width="0.7" opacity="0.35"/><line x1="0" y1="504" x2="512" y2="504" stroke="#082040" stroke-width="0.7" opacity="0.35"/><line x1="0" y1="0" x2="0" y2="512" stroke="#082040" stroke-width="0.7" opacity="0.35"/><line x1="36" y1="0" x2="36" y2="512" stroke="#082040" stroke-width="0.7" opacity="0.35"/><line x1="72" y1="0" x2="72" y2="512" stroke="#082040" stroke-width="0.7" opacity="0.35"/><line x1="108" y1="0" x2="108" y2="512" stroke="#082040" stroke-width="0.7" opacity="0.35"/><line x1="144" y1="0" x2="144" y2="512" stroke="#082040" stroke-width="0.7" opacity="0.35"/><line x1="180" y1="0" x2="180" y2="512" stroke="#082040" stroke-width="0.7" opacity="0.35"/><line x1="216" y1="0" x2="216" y2="512" stroke="#082040" stroke-width="0.7" opacity="0.35"/><line x1="252" y1="0" x2="252" y2="512" stroke="#082040" stroke-width="0.7" opacity="0.35"/><line x1="288" y1="0" x2="288" y2="512" stroke="#082040" stroke-width="0.7" opacity="0.35"/><line x1="324" y1="0" x2="324" y2="512" stroke="#082040" stroke-width="0.7" opacity="0.35"/><line x1="360" y1="0" x2="360" y2="512" stroke="#082040" stroke-width="0.7" opacity="0.35"/><line x1="396" y1="0" x2="396" y2="512" stroke="#082040" stroke-width="0.7" opacity="0.35"/><line x1="432" y1="0" x2="432" y2="512" stroke="#082040" stroke-width="0.7" opacity="0.35"/><line x1="468" y1="0" x2="468" y2="512" stroke="#082040" stroke-width="0.7" opacity="0.35"/><line x1="504" y1="0" x2="504" y2="512" stroke="#082040" stroke-width="0.7" opacity="0.35"/>
  <ellipse cx="256" cy="510" rx="220" ry="100" fill="#0878b0" filter="url(#pool)" opacity="0.38"/>
  <g filter="url(#glow)"><path d="M 168,315 Q 102,298 113,227 Q 113,161 179,161 Q 190,106 256,100 Q 327,100 344,161 Q 410,161 399,232 Q 410,304 333,315 Z" fill="none" stroke="#20d0f8" stroke-width="4.5"/><line x1="201" y1="183" x2="245" y2="227" stroke="#0898c8" stroke-width="2.5" opacity=".75"/>
<line x1="245" y1="227" x2="300" y2="183" stroke="#0898c8" stroke-width="2.5" opacity=".75"/>
<line x1="300" y1="183" x2="322" y2="238" stroke="#0898c8" stroke-width="2.5" opacity=".65"/>
<line x1="245" y1="227" x2="256" y2="282" stroke="#0898c8" stroke-width="2.5" opacity=".65"/>
<line x1="201" y1="183" x2="179" y2="227" stroke="#0898c8" stroke-width="2" opacity=".5"/>
<line x1="179" y1="227" x2="245" y2="227" stroke="#0898c8" stroke-width="2" opacity=".5"/><circle cx="201" cy="183" r="11" fill="#80e8ff" opacity=".9"/>
<circle cx="300" cy="183" r="11" fill="#80e8ff" opacity=".9"/>
<circle cx="322" cy="238" r="10" fill="#80e8ff" opacity=".8"/>
<circle cx="256" cy="282" r="10" fill="#80e8ff" opacity=".8"/>
<circle cx="179" cy="227" r="10" fill="#80e8ff" opacity=".7"/>
<circle cx="245" cy="227" r="14" fill="#20d0f8" opacity=".65"/><line x1="190" y1="315" x2="175" y2="395" stroke="#0898c8" stroke-width="2" opacity=".35"/>
<line x1="256" y1="315" x2="256" y2="405" stroke="#0898c8" stroke-width="2" opacity=".35"/>
<line x1="333" y1="315" x2="350" y2="395" stroke="#0898c8" stroke-width="2" opacity=".35"/></g>
  <g filter="url(#sglow)"><path d="M 168,315 Q 102,298 113,227 Q 113,161 179,161 Q 190,106 256,100 Q 327,100 344,161 Q 410,161 399,232 Q 410,304 333,315 Z" fill="none" stroke="#40e8ff" stroke-width="2.5"/><line x1="201" y1="183" x2="245" y2="227" stroke="#0898c8" stroke-width="2.5" opacity=".75"/>
<line x1="245" y1="227" x2="300" y2="183" stroke="#0898c8" stroke-width="2.5" opacity=".75"/>
<line x1="300" y1="183" x2="322" y2="238" stroke="#0898c8" stroke-width="2.5" opacity=".65"/>
<line x1="245" y1="227" x2="256" y2="282" stroke="#0898c8" stroke-width="2.5" opacity=".65"/>
<line x1="201" y1="183" x2="179" y2="227" stroke="#0898c8" stroke-width="2" opacity=".5"/>
<line x1="179" y1="227" x2="245" y2="227" stroke="#0898c8" stroke-width="2" opacity=".5"/><circle cx="201" cy="183" r="8" fill="#a8f0ff" opacity=".9"/>
<circle cx="300" cy="183" r="8" fill="#a8f0ff" opacity=".9"/>
<circle cx="322" cy="238" r="7" fill="#a8f0ff" opacity=".8"/>
<circle cx="256" cy="282" r="7" fill="#a8f0ff" opacity=".8"/>
<circle cx="179" cy="227" r="7" fill="#a8f0ff" opacity=".7"/>
<circle cx="245" cy="227" r="11" fill="#50e8ff" opacity=".7"/><line x1="190" y1="315" x2="175" y2="395" stroke="#0898c8" stroke-width="2" opacity=".35"/>
<line x1="256" y1="315" x2="256" y2="405" stroke="#0898c8" stroke-width="2" opacity=".35"/>
<line x1="333" y1="315" x2="350" y2="395" stroke="#0898c8" stroke-width="2" opacity=".35"/></g>
</g>
</svg>