<svg viewBox="0 0 512 512" xmlns="http://www.w3.org/2000/svg" width="512" height="512">
<defs>
  <clipPath id="rnd"><rect width="512" height="512" rx="110"/></clipPath>
  <filter id="glow" x="-80%" y="-80%" width="260%" height="260%">
    <feGaussianBlur in="SourceGraphic" stdDeviation="14" result="b"/>
    <feMerge><feMergeNode in="b"/><feMergeNode in="b"/><feMergeNode in="SourceGraphic"/></feMerge>
  </filter>
  <filter id="sglow" x="-40%" y="-40%" width="180%" height="180%">
    <feGaussianBlur in="SourceGraphic" stdDeviation="7" result="b"/>
    <feMerge><feMergeNode in="b"/><feMergeNode in="SourceGraphic"/></feMerge>
  </filter>
  <filter id="pool" x="-100%" y="-100%" width="300%" height="300%">
    <feGaussianBlur in="SourceGraphic" stdDeviation="28"/>
  </filter>
</defs>
<g clip-path="url(#rnd)">
  <rect width="512" height="512" fill="#140820"/>
  <circle cx="32" cy="32" r="1.4" fill="#4a1060" opacity="0.5"/><circle cx="32" cy="76" r="1.4" fill="#4a1060" opacity="0.5"/><circle cx="32" cy="120" r="1.4" fill="#4a1060" opacity="0.5"/><circle cx="32" cy="164" r="1.4" fill="#4a1060" opacity="0.5"/><circle cx="32" cy="208" r="1.4" fill="#4a1060" opacity="0.5"/><circle cx="32" cy="252" r="1.4" fill="#4a1060" opacity="0.5"/><circle cx="32" cy="296" r="1.4" fill="#4a1060" opacity="0.5"/><circle cx="32" cy="340" r="1.4" fill="#4a1060" opacity="0.5"/><circle cx="32" cy="384" r="1.4" fill="#4a1060" opacity="0.5"/><circle cx="32" cy="428" r="1.4" fill="#4a1060" opacity="0.5"/><circle cx="32" cy="472" r="1.4" fill="#4a1060" opacity="0.5"/><circle cx="76" cy="32" r="1.4" fill="#4a1060" opacity="0.5"/><circle cx="76" cy="76" r="1.4" fill="#4a1060" opacity="0.5"/><circle cx="76" cy="120" r="1.4" fill="#4a1060" opacity="0.5"/><circle cx="76" cy="164" r="1.4" fill="#4a1060" opacity="0.5"/><circle cx="76" cy="208" r="1.4" fill="#4a1060" opacity="0.5"/><circle cx="76" cy="252" r="1.4" fill="#4a1060" opacity="0.5"/><circle cx="76" cy="296" r="1.4" fill="#4a1060" opacity="0.5"/><circle cx="76" cy="340" r="1.4" fill="#4a1060" opacity="0.5"/><circle cx="76" cy="384" r="1.4" fill="#4a1060" opacity="0.5"/><circle cx="76" cy="428" r="1.4" fill="#4a1060" opacity="0.5"/><circle cx="76" cy="472" r="1.4" fill="#4a1060" opacity="0.5"/><circle cx="120" cy="32" r="1.4" fill="#4a1060" opacity="0.5"/><circle cx="120" cy="76" r="1.4" fill="#4a1060" opacity="0.5"/><circle cx="120" cy="120" r="1.4" fill="#4a1060" opacity="0.5"/><circle cx="120" cy="164" r="1.4" fill="#4a1060" opacity="0.5"/><circle cx="120" cy="208" r="1.4" fill="#4a1060" opacity="0.5"/><circle cx="120" cy="252" r="1.4" fill="#4a1060" opacity="0.5"/><circle cx="120" cy="296" r="1.4" fill="#4a1060" opacity="0.5"/><circle cx="120" cy="340" r="1.4" fill="#4a1060" opacity="0.5"/><circle cx="120" cy="384" r="1.4" fill="#4a1060" opacity="0.5"/><circle cx="120" cy="428" r="1.4" fill="#4a1060" opacity="0.5"/><circle cx="120" cy="472" r="1.4" fill="#4a1060" opacity="0.5"/><circle cx="164" cy="32" r="1.4" fill="#4a1060" opacity="0.5"/><circle cx="164" cy="76" r="1.4" fill="#4a1060" opacity="0.5"/><circle cx="164" cy="120" r="1.4" fill="#4a1060" opacity="0.5"/><circle cx="164" cy="164" r="1.4" fill="#4a1060" opacity="0.5"/><circle cx="164" cy="208" r="1.4" fill="#4a1060" opacity="0.5"/><circle cx="164" cy="252" r="1.4" fill="#4a1060" opacity="0.5"/><circle cx="164" cy="296" r="1.4" fill="#4a1060" opacity="0.5"/><circle cx="164" cy="340" r="1.4" fill="#4a1060" opacity="0.5"/><circle cx="164" cy="384" r="1.4" fill="#4a1060" opacity="0.5"/><circle cx="164" cy="428" r="1.4" fill="#4a1060" opacity="0.5"/><circle cx="164" cy="472" r="1.4" fill="#4a1060" opacity="0.5"/><circle cx="208" cy="32" r="1.4" fill="#4a1060" opacity="0.5"/><circle cx="208" cy="76" r="1.4" fill="#4a1060" opacity="0.5"/><circle cx="208" cy="120" r="1.4" fill="#4a1060" opacity="0.5"/><circle cx="208" cy="164" r="1.4" fill="#4a1060" opacity="0.5"/><circle cx="208" cy="208" r="1.4" fill="#4a1060" opacity="0.5"/><circle cx="208" cy="252" r="1.4" fill="#4a1060" opacity="0.5"/><circle cx="208" cy="296" r="1.4" fill="#4a1060" opacity="0.5"/><circle cx="208" cy="340" r="1.4" fill="#4a1060" opacity="0.5"/><circle cx="208" cy="384" r="1.4" fill="#4a1060" opacity="0.5"/><circle cx="208" cy="428" r="1.4" fill="#4a1060" opacity="0.5"/><circle cx="208" cy="472" r="1.4" fill="#4a1060" opacity="0.5"/><circle cx="252" cy="32" r="1.4" fill="#4a1060" opacity="0.5"/><circle cx="252" cy="76" r="1.4" fill="#4a1060" opacity="0.5"/><circle cx="252" cy="120" r="1.4" fill="#4a1060" opacity="0.5"/><circle cx="252" cy="164" r="1.4" fill="#4a1060" opacity="0.5"/><circle cx="252" cy="208" r="1.4" fill="#4a1060" opacity="0.5"/><circle cx="252" cy="252" r="1.4" fill="#4a1060" opacity="0.5"/><circle cx="252" cy="296" r="1.4" fill="#4a1060" opacity="0.5"/><circle cx="252" cy="340" r="1.4" fill="#4a1060" opacity="0.5"/><circle cx="252" cy="384" r="1.4" fill="#4a1060" opacity="0.5"/><circle cx="252" cy="428" r="1.4" fill="#4a1060" opacity="0.5"/><circle cx="252" cy="472" r="1.4" fill="#4a1060" opacity="0.5"/><circle cx="296" cy="32" r="1.4" fill="#4a1060" opacity="0.5"/><circle cx="296" cy="76" r="1.4" fill="#4a1060" opacity="0.5"/><circle cx="296" cy="120" r="1.4" fill="#4a1060" opacity="0.5"/><circle cx="296" cy="164" r="1.4" fill="#4a1060" opacity="0.5"/><circle cx="296" cy="208" r="1.4" fill="#4a1060" opacity="0.5"/><circle cx="296" cy="252" r="1.4" fill="#4a1060" opacity="0.5"/><circle cx="296" cy="296" r="1.4" fill="#4a1060" opacity="0.5"/><circle cx="296" cy="340" r="1.4" fill="#4a1060" opacity="0.5"/><circle cx="296" cy="384" r="1.4" fill="#4a1060" opacity="0.5"/><circle cx="296" cy="428" r="1.4" fill="#4a1060" opacity="0.5"/><circle cx="296" cy="472" r="1.4" fill="#4a1060" opacity="0.5"/><circle cx="340" cy="32" r="1.4" fill="#4a1060" opacity="0.5"/><circle cx="340" cy="76" r="1.4" fill="#4a1060" opacity="0.5"/><circle cx="340" cy="120" r="1.4" fill="#4a1060" opacity="0.5"/><circle cx="340" cy="164" r="1.4" fill="#4a1060" opacity="0.5"/><circle cx="340" cy="208" r="1.4" fill="#4a1060" opacity="0.5"/><circle cx="340" cy="252" r="1.4" fill="#4a1060" opacity="0.5"/><circle cx="340" cy="296" r="1.4" fill="#4a1060" opacity="0.5"/><circle cx="340" cy="340" r="1.4" fill="#4a1060" opacity="0.5"/><circle cx="340" cy="384" r="1.4" fill="#4a1060" opacity="0.5"/><circle cx="340" cy="428" r="1.4" fill="#4a1060" opacity="0.5"/><circle cx="340" cy="472" r="1.4" fill="#4a1060" opacity="0.5"/><circle cx="384" cy="32" r="1.4" fill="#4a1060" opacity="0.5"/><circle cx="384" cy="76" r="1.4" fill="#4a1060" opacity="0.5"/><circle cx="384" cy="120" r="1.4" fill="#4a1060" opacity="0.5"/><circle cx="384" cy="164" r="1.4" fill="#4a1060" opacity="0.5"/><circle cx="384" cy="208" r="1.4" fill="#4a1060" opacity="0.5"/><circle cx="384" cy="252" r="1.4" fill="#4a1060" opacity="0.5"/><circle cx="384" cy="296" r="1.4" fill="#4a1060" opacity="0.5"/><circle cx="384" cy="340" r="1.4" fill="#4a1060" opacity="0.5"/><circle cx="384" cy="384" r="1.4" fill="#4a1060" opacity="0.5"/><circle cx="384" cy="428" r="1.4" fill="#4a1060" opacity="0.5"/><circle cx="384" cy="472" r="1.4" fill="#4a1060" opacity="0.5"/><circle cx="428" cy="32" r="1.4" fill="#4a1060" opacity="0.5"/><circle cx="428" cy="76" r="1.4" fill="#4a1060" opacity="0.5"/><circle cx="428" cy="120" r="1.4" fill="#4a1060" opacity="0.5"/><circle cx="428" cy="164" r="1.4" fill="#4a1060" opacity="0.5"/><circle cx="428" cy="208" r="1.4" fill="#4a1060" opacity="0.5"/><circle cx="428" cy="252" r="1.4" fill="#4a1060" opacity="0.5"/><circle cx="428" cy="296" r="1.4" fill="#4a1060" opacity="0.5"/><circle cx="428" cy="340" r="1.4" fill="#4a1060" opacity="0.5"/><circle cx="428" cy="384" r="1.4" fill="#4a1060" opacity="0.5"/><circle cx="428" cy="428" r="1.4" fill="#4a1060" opacity="0.5"/><circle cx="428" cy="472" r="1.4" fill="#4a1060" opacity="0.5"/><circle cx="472" cy="32" r="1.4" fill="#4a1060" opacity="0.5"/><circle cx="472" cy="76" r="1.4" fill="#4a1060" opacity="0.5"/><circle cx="472" cy="120" r="1.4" fill="#4a1060" opacity="0.5"/><circle cx="472" cy="164" r="1.4" fill="#4a1060" opacity="0.5"/><circle cx="472" cy="208" r="1.4" fill="#4a1060" opacity="0.5"/><circle cx="472" cy="252" r="1.4" fill="#4a1060" opacity="0.5"/><circle cx="472" cy="296" r="1.4" fill="#4a1060" opacity="0.5"/><circle cx="472" cy="340" r="1.4" fill="#4a1060" opacity="0.5"/><circle cx="472" cy="384" r="1.4" fill="#4a1060" opacity="0.5"/><circle cx="472" cy="428" r="1.4" fill="#4a1060" opacity="0.5"/><circle cx="472" cy="472" r="1.4" fill="#4a1060" opacity="0.5"/>
  <ellipse cx="256" cy="510" rx="220" ry="100" fill="#a020d0" filter="url(#pool)" opacity="0.38"/>
  <g filter="url(#glow)">
<circle cx="190" cy="190" r="68" fill="none" stroke="#d060f0" stroke-width="4.5"/>
<line x1="190" y1="158" x2="190" y2="222" stroke="#f0a0ff" stroke-width="5" stroke-linecap="round"/>
<line x1="158" y1="190" x2="222" y2="190" stroke="#f0a0ff" stroke-width="5" stroke-linecap="round"/>

<circle cx="348" cy="158" r="50" fill="none" stroke="#d060f0" stroke-width="4"/>
<line x1="348" y1="132" x2="348" y2="184" stroke="#d060f0" stroke-width="4" stroke-linecap="round"/>
<line x1="322" y1="158" x2="374" y2="158" stroke="#d060f0" stroke-width="4" stroke-linecap="round"/>

<circle cx="148" cy="348" r="44" fill="none" stroke="#d060f0" stroke-width="3.5"/>
<line x1="148" y1="324" x2="148" y2="372" stroke="#d060f0" stroke-width="3.5" stroke-linecap="round"/>
<line x1="124" y1="348" x2="172" y2="348" stroke="#d060f0" stroke-width="3.5" stroke-linecap="round"/>

<line x1="190" y1="258" x2="162" y2="308" stroke="#702090" stroke-width="3" opacity=".55"/>
<line x1="258" y1="190" x2="192" y2="306" stroke="#702090" stroke-width="3" opacity=".55"/>
<line x1="280" y1="190" x2="282" y2="270" stroke="#702090" stroke-width="2.5" opacity=".4"/>

<rect x="278" y="268" width="178" height="158" rx="12" fill="none" stroke="#f0a0ff" stroke-width="4.5"/>
<line x1="300" y1="308" x2="432" y2="308" stroke="#d060f0" stroke-width="3.5" opacity=".7"/>
<line x1="300" y1="334" x2="410" y2="334" stroke="#d060f0" stroke-width="3" opacity=".6"/>
<line x1="300" y1="358" x2="380" y2="358" stroke="#d060f0" stroke-width="2.5" opacity=".5"/>
<line x1="300" y1="382" x2="350" y2="382" stroke="#a040c0" stroke-width="2" opacity=".4"/>
</g>
  <g filter="url(#sglow)">
<circle cx="190" cy="190" r="68" fill="none" stroke="#e080ff" stroke-width="2.5"/>
<line x1="190" y1="158" x2="190" y2="222" stroke="#f0b0ff" stroke-width="3" stroke-linecap="round"/>
<line x1="158" y1="190" x2="222" y2="190" stroke="#f0b0ff" stroke-width="3" stroke-linecap="round"/>

<circle cx="348" cy="158" r="50" fill="none" stroke="#d060f0" stroke-width="2.5"/>
<line x1="348" y1="132" x2="348" y2="184" stroke="#e080ff" stroke-width="2.5" stroke-linecap="round"/>
<line x1="322" y1="158" x2="374" y2="158" stroke="#e080ff" stroke-width="2.5" stroke-linecap="round"/>

<circle cx="148" cy="348" r="44" fill="none" stroke="#d060f0" stroke-width="2.2"/>
<line x1="148" y1="324" x2="148" y2="372" stroke="#e080ff" stroke-width="2.2" stroke-linecap="round"/>
<line x1="124" y1="348" x2="172" y2="348" stroke="#e080ff" stroke-width="2.2" stroke-linecap="round"/>

<line x1="190" y1="258" x2="162" y2="308" stroke="#8030a0" stroke-width="2" opacity=".5"/>
<line x1="258" y1="190" x2="192" y2="306" stroke="#8030a0" stroke-width="2" opacity=".5"/>

<rect x="278" y="268" width="178" height="158" rx="12" fill="none" stroke="#e080ff" stroke-width="2.5"/>
<line x1="300" y1="308" x2="432" y2="308" stroke="#c050e0" stroke-width="2.5" opacity=".7"/>
<line x1="300" y1="334" x2="410" y2="334" stroke="#c050e0" stroke-width="2" opacity=".6"/>
<line x1="300" y1="358" x2="380" y2="358" stroke="#c050e0" stroke-width="1.8" opacity=".5"/>
<line x1="300" y1="382" x2="350" y2="382" stroke="#a040c0" stroke-width="1.5" opacity=".4"/>
</g>
</g>
</svg>