<svg viewBox="0 0 512 512" xmlns="http://www.w3.org/2000/svg" width="512" height="512">
<defs>
  <clipPath id="rnd"><rect width="512" height="512" rx="110"/></clipPath>
  <filter id="glow" x="-80%" y="-80%" width="260%" height="260%">
    <feGaussianBlur in="SourceGraphic" stdDeviation="14" result="b"/>
    <feMerge><feMergeNode in="b"/><feMergeNode in="b"/><feMergeNode in="SourceGraphic"/></feMerge>
  </filter>
  <filter id="sglow" x="-40%" y="-40%" width="180%" height="180%">
    <feGaussianBlur in="SourceGraphic" stdDeviation="7" result="b"/>
    <feMerge><feMergeNode in="b"/><feMergeNode in="SourceGraphic"/></feMerge>
  </filter>
  <filter id="pool" x="-100%" y="-100%" width="300%" height="300%">
    <feGaussianBlur in="SourceGraphic" stdDeviation="28"/>
  </filter>
</defs>
<g clip-path="url(#rnd)">
  <rect width="512" height="512" fill="#0e0404"/>
  <line x1="712" y1="0" x2="0" y2="712" stroke="#3a0808" stroke-width="0.7" opacity="0.35"/><line x1="674" y1="0" x2="-38" y2="712" stroke="#3a0808" stroke-width="0.7" opacity="0.35"/><line x1="636" y1="0" x2="-76" y2="712" stroke="#3a0808" stroke-width="0.7" opacity="0.35"/><line x1="598" y1="0" x2="-114" y2="712" stroke="#3a0808" stroke-width="0.7" opacity="0.35"/><line x1="560" y1="0" x2="-152" y2="712" stroke="#3a0808" stroke-width="0.7" opacity="0.35"/><line x1="522" y1="0" x2="-190" y2="712" stroke="#3a0808" stroke-width="0.7" opacity="0.35"/><line x1="484" y1="0" x2="-228" y2="712" stroke="#3a0808" stroke-width="0.7" opacity="0.35"/><line x1="446" y1="0" x2="-266" y2="712" stroke="#3a0808" stroke-width="0.7" opacity="0.35"/><line x1="408" y1="0" x2="-304" y2="712" stroke="#3a0808" stroke-width="0.7" opacity="0.35"/><line x1="370" y1="0" x2="-342" y2="712" stroke="#3a0808" stroke-width="0.7" opacity="0.35"/><line x1="332" y1="0" x2="-380" y2="712" stroke="#3a0808" stroke-width="0.7" opacity="0.35"/><line x1="294" y1="0" x2="-418" y2="712" stroke="#3a0808" stroke-width="0.7" opacity="0.35"/><line x1="256" y1="0" x2="-456" y2="712" stroke="#3a0808" stroke-width="0.7" opacity="0.35"/><line x1="218" y1="0" x2="-494" y2="712" stroke="#3a0808" stroke-width="0.7" opacity="0.35"/><line x1="180" y1="0" x2="-532" y2="712" stroke="#3a0808" stroke-width="0.7" opacity="0.35"/><line x1="142" y1="0" x2="-570" y2="712" stroke="#3a0808" stroke-width="0.7" opacity="0.35"/><line x1="104" y1="0" x2="-608" y2="712" stroke="#3a0808" stroke-width="0.7" opacity="0.35"/><line x1="66" y1="0" x2="-646" y2="712" stroke="#3a0808" stroke-width="0.7" opacity="0.35"/><line x1="28" y1="0" x2="-684" y2="712" stroke="#3a0808" stroke-width="0.7" opacity="0.35"/><line x1="-10" y1="0" x2="-722" y2="712" stroke="#3a0808" stroke-width="0.7" opacity="0.35"/><line x1="-48" y1="0" x2="-760" y2="712" stroke="#3a0808" stroke-width="0.7" opacity="0.35"/><line x1="-86" y1="0" x2="-798" y2="712" stroke="#3a0808" stroke-width="0.7" opacity="0.35"/>
  <ellipse cx="256" cy="510" rx="220" ry="110" fill="#c01018" filter="url(#pool)" opacity="0.38"/>
  <g filter="url(#glow)"><g fill="none" stroke="#d83030" stroke-width="3.5">
  <path d="M256,168 C228,162 128,172 104,188 L104,408 C128,392 228,386 256,408 Z"/>
  <path d="M256,168 C284,162 384,172 408,188 L408,408 C384,392 284,386 256,408 Z"/>
</g>
<line x1="256" y1="168" x2="256" y2="408" stroke="#e84040" stroke-width="3"/>
<g stroke="#a82020" stroke-width="1.8" opacity="0.6">
  <line x1="124" y1="220" x2="244" y2="216"/>
  <line x1="120" y1="248" x2="242" y2="244"/>
  <line x1="118" y1="276" x2="240" y2="272"/>
  <line x1="118" y1="304" x2="240" y2="300"/>
  <line x1="268" y1="216" x2="388" y2="220"/>
  <line x1="270" y1="244" x2="390" y2="248"/>
  <line x1="272" y1="272" x2="390" y2="276"/>
  <line x1="272" y1="300" x2="390" y2="304"/>
</g>
<path d="M200,142 L200,110 L220,128 L256,94 L292,128 L312,110 L312,142 Z" fill="none" stroke="#f87070" stroke-width="3.5"/>
<circle cx="200" cy="110" r="8" fill="#f87070"/>
<circle cx="312" cy="110" r="8" fill="#f87070"/>
<circle cx="256" cy="94" r="9" fill="#ff9090"/></g>
  <g filter="url(#sglow)"><g fill="none" stroke="#e84040" stroke-width="2">
  <path d="M256,168 C228,162 128,172 104,188 L104,408 C128,392 228,386 256,408 Z"/>
  <path d="M256,168 C284,162 384,172 408,188 L408,408 C384,392 284,386 256,408 Z"/>
</g>
<line x1="256" y1="168" x2="256" y2="408" stroke="#f05050" stroke-width="2"/>
<path d="M200,142 L200,110 L220,128 L256,94 L292,128 L312,110 L312,142 Z" fill="none" stroke="#ff8080" stroke-width="2"/>
<circle cx="200" cy="110" r="6" fill="#ff8080"/>
<circle cx="312" cy="110" r="6" fill="#ff8080"/>
<circle cx="256" cy="94" r="7" fill="#ffaaaa"/></g>
</g>
</svg>